<svg width="61.000000" height="60.512726" viewBox="0 0 61 60.5127" fill="none" xmlns="http://www.w3.org/2000/svg" xmlns:xlink="http://www.w3.org/1999/xlink">
	<desc>
			Created with Pixso.
	</desc>
	<defs>
		<clipPath id="clip22_246">
			<rect id="gg:play-list-search" width="61.000000" height="60.512726" fill="white" fill-opacity="0"/>
		</clipPath>
	</defs>
	<rect id="gg:play-list-search" width="61.000000" height="60.512726" fill="#FFFFFF" fill-opacity="0"/>
	<g clip-path="url(#clip22_246)">
		<path id="Vector" d="M40.35 12.3L9.85 12.3L9.85 17.34L40.35 17.34L40.35 12.3Z" fill="#4694DC" fill-opacity="1.000000" fill-rule="nonzero"/>
		<path id="Vector" d="M40.35 22.38L9.85 22.38L9.85 27.42L40.35 27.42L40.35 22.38Z" fill="#4694DC" fill-opacity="1.000000" fill-rule="nonzero"/>
		<path id="Vector" d="M9.85 32.47L30.19 32.47L30.19 37.51L9.85 37.51L9.85 32.47Z" fill="#4694DC" fill-opacity="1.000000" fill-rule="nonzero"/>
		<path id="Vector" d="M34.96 32.16C33.69 33.42 32.9 35.09 32.75 36.87C32.59 38.65 33.08 40.43 34.12 41.89C35.16 43.34 36.68 44.39 38.43 44.84C40.17 45.29 42.02 45.11 43.64 44.34L47.54 48.21L51.14 44.64L47.23 40.77C48.01 39.16 48.18 37.33 47.73 35.61C47.27 33.88 46.22 32.37 44.75 31.34C43.28 30.31 41.5 29.83 39.71 29.98C37.91 30.13 36.23 30.9 34.96 32.16ZM38.56 39.29C38.79 39.53 39.07 39.71 39.38 39.84C39.69 39.97 40.02 40.03 40.36 40.03C40.69 40.03 41.02 39.97 41.33 39.84C41.64 39.71 41.92 39.53 42.15 39.29C42.39 39.06 42.58 38.78 42.7 38.47C42.83 38.17 42.9 37.84 42.9 37.51C42.9 37.18 42.83 36.85 42.7 36.54C42.57 36.24 42.39 35.96 42.15 35.73C41.67 35.25 41.03 34.99 40.35 34.99C39.68 34.99 39.03 35.25 38.56 35.73C38.08 36.2 37.81 36.84 37.81 37.51C37.81 38.18 38.08 38.82 38.56 39.29Z" fill="#4694DC" fill-opacity="1.000000" fill-rule="evenodd"/>
	</g>
</svg>
